<?xml version="1.0" standalone="no"?>
<!DOCTYPE svg PUBLIC "-//W3C//DTD SVG 20010904//EN"
 "http://www.w3.org/TR/2001/REC-SVG-20010904/DTD/svg10.dtd">
<svg version="1.0" xmlns="http://www.w3.org/2000/svg"
 width="700.000000pt" height="700.000000pt" viewBox="0 0 700.000000 700.000000"
 preserveAspectRatio="xMidYMid meet">
<metadata>
Created by potrace 1.14, written by Peter Selinger 2001-2017
</metadata>
<g transform="translate(0.000000,700.000000) scale(0.100000,-0.100000)"
fill="#000000" stroke="none">
<path d="M440 6983 c2 -65 557 -6263 562 -6268 3 -3 565 -166 1249 -360 l1244
-354 1248 353 c687 194 1252 357 1256 362 4 5 130 1397 280 3094 150 1697 275
3109 278 3138 l6 52 -3062 0 c-2909 0 -3061 -1 -3061 -17z m4980 -1290 c0 -10
-13 -169 -30 -353 -16 -184 -30 -347 -30 -362 l0 -28 -1470 0 -1470 0 5 -42
c3 -24 17 -180 30 -348 14 -168 28 -326 31 -352 l6 -48 1392 0 c766 0 1395 -2
1397 -5 8 -7 -209 -2367 -218 -2375 -10 -10 -1536 -420 -1561 -420 -25 0
-1565 411 -1576 421 -6 6 -97 1049 -106 1212 0 4 171 7 380 7 l380 0 4 -22 c3
-13 16 -151 30 -307 14 -156 27 -285 30 -288 7 -7 837 -233 857 -233 16 0 603
158 782 211 37 11 67 25 67 32 0 7 20 225 45 486 25 261 45 480 45 487 0 12
-216 14 -1329 14 l-1329 0 -6 58 c-9 83 -196 2236 -196 2255 0 16 135 17 1920
17 1822 0 1920 -1 1920 -17z"/>
</g>
</svg>
